<svg width="39" height="41" viewBox="0 0 39 41" fill="none" xmlns="http://www.w3.org/2000/svg">
<g clip-path="url(#clip0_619_1041)">
<path d="M29.4789 27.6745C29.2545 27.4394 29.0365 27.1996 28.8185 26.9646C34.7167 19.7906 33.4638 9.69602 27.0551 4.05791C20.8393 -1.41028 11.4397 -1.34993 5.3976 4.22625C-0.867239 10.0089 -1.79472 19.3205 3.22663 26.1863C8.2227 33.0172 18.0711 35.1502 25.6726 29.8694C25.7785 29.9821 25.8669 30.0774 25.9586 30.1727C27.5718 31.8594 29.1866 33.5461 30.7998 35.2343C32.2945 36.7971 33.7861 38.3647 35.284 39.9243C36.0708 40.7422 37.1531 40.8867 38.038 40.3086C39.2024 39.5479 39.3304 37.9803 38.3113 36.9131C35.3693 33.8319 32.4225 30.754 29.4789 27.6745ZM16.3077 28.5416C9.64631 28.5242 4.26629 23.0909 4.27735 16.3903C4.28841 9.67061 9.69529 4.26596 16.3883 4.28343C23.0039 4.3009 28.395 9.78179 28.3587 16.4522C28.3207 23.1545 22.9328 28.5607 16.3077 28.5416Z" fill="white"/>
</g>
<defs>
<clipPath id="clip0_619_1041">
<rect width="39" height="40.6596" fill="white"/>
</clipPath>
</defs>
</svg>
